<?xml version="1.0" encoding="UTF-8"?>
<svg width="72px" height="23px" viewBox="0 0 72 23" version="1.1" xmlns="http://www.w3.org/2000/svg" xmlns:xlink="http://www.w3.org/1999/xlink">
    <!-- Generator: Sketch 52.2 (67145) - http://www.bohemiancoding.com/sketch -->
    <title>logo-codal</title>
    <desc>Created with Sketch.</desc>
    <defs>
        <polygon id="path-1" points="0.01152 0.115761919 12.15264 0.115761919 12.15264 16.6916017 0.01152 16.6916017"></polygon>
    </defs>
    <g id="Homepage" stroke="none" stroke-width="1" fill="none" fill-rule="evenodd">
        <g id="01-C.Site-Homepage-Desktop" transform="translate(-343.000000, -17.000000)">
            <g id="SECTION-1-HERO-" transform="translate(-90.000000, -305.000000)">
                <g id="Top-Nav" transform="translate(90.000000, 305.000000)">
                    <g id="Logo-Block">
                        <g id="logo-codal" transform="translate(343.000000, 17.011039)">
                            <g id="letter-c" transform="translate(0.000000, 5.951276)">
                                <mask id="mask-2" fill="white">
                                    <use xlink:href="#path-1"></use>
                                </mask>
                                <g id="Clip-2"></g>
                                <path d="M7.661376,15.1066425 C9.18048,15.1066425 10.732608,14.8094627 12.15264,14.2481229 L12.15264,15.8330822 C10.66656,16.3944219 9.081408,16.6916017 7.496448,16.6916017 C4.094976,16.6916017 0,15.3047624 0,8.40377782 C0,1.53562122 4.094976,0.115761919 7.496448,0.115761919 C9.081408,0.115761919 10.66656,0.445961756 12.15264,0.974281495 L12.15264,2.55924071 C10.732608,2.03092097 9.18048,1.70072114 7.661376,1.70072114 C4.028736,1.70072114 1.618176,3.3847403 1.618176,8.40377782 C1.618176,13.4558353 4.028736,15.1066425 7.661376,15.1066425" id="Fill-1" fill="#FFFFFF" mask="url(#mask-2)"></path>
                            </g>
                            <path d="M28.36704,14.3550539 C28.36704,9.30299644 26.022336,7.58595729 22.488768,7.58595729 C18.988416,7.58595729 16.610688,9.30299644 16.610688,14.3550539 C16.610688,19.4071114 18.988416,21.1239586 22.488768,21.1239586 C26.022336,21.1239586 28.36704,19.4071114 28.36704,14.3550539 Z M29.985216,14.3550539 C29.985216,21.1569786 25.923264,22.6428779 22.488768,22.6428779 C19.054464,22.6428779 14.992512,21.1569786 14.992512,14.3550539 C14.992512,7.55293731 19.054464,6.06703804 22.488768,6.06703804 C25.923264,6.06703804 29.985216,7.55293731 29.985216,14.3550539 Z" id="Fill-4" fill="#FFFFFF"></path>
                            <path d="M40.783872,21.1239586 C44.350464,21.1239586 45.572352,19.4071114 45.572352,17.7230923 L45.572352,8.51051684 C44.218368,7.94917711 42.633216,7.61897728 41.01504,7.61897728 C37.514496,7.61897728 35.335104,9.30299644 35.335104,14.222974 C35.335104,20.364499 38.505216,21.1239586 40.783872,21.1239586 Z M41.01504,6.10025 C42.633216,6.10025 44.185152,6.36440987 45.572352,6.85951765 L45.572352,0.189672929 L47.190528,0.189672929 L47.190528,17.6568603 C47.190528,18.8787917 46.62912,22.6428779 40.783872,22.6428779 C38.076096,22.6428779 33.683904,21.5532184 33.683904,14.222974 C33.683904,7.5201093 37.580544,6.10025 41.01504,6.10025 Z" id="Fill-5" fill="#FFFFFF"></path>
                            <polygon id="Fill-6" fill="#FFFFFF" points="70.176768 22.378718 71.827968 22.378718 71.827968 0.189672929 70.176768 0.189672929"></polygon>
                            <path d="M63.363456,17.733267 C63.363456,19.4172862 62.14176,21.1343254 58.575168,21.1343254 C56.316096,21.1343254 53.182272,20.3846565 53.128704,14.3861542 C53.182272,8.38765178 56.316096,7.63817494 58.575168,7.63817494 C62.14176,7.63817494 63.363456,9.35502212 63.363456,11.0390413 L63.363456,17.733267 Z M58.575168,6.11925569 C55.9104,6.11925569 51.617856,7.17877482 51.481536,14.1978251 C51.479808,14.1974411 51.477696,14.3343205 51.47808,14.3861542 C51.477696,14.4379879 51.479808,14.5748672 51.481536,14.5744833 C51.617856,21.5935335 55.9104,22.6532446 58.575168,22.6532446 C60.920832,22.6532446 62.414592,22.0464064 63.363456,21.2414483 L63.363456,22.378718 L64.981632,22.378718 L64.981632,11.1048893 C64.981632,9.88334185 64.420224,6.11925569 58.575168,6.11925569 Z" id="Fill-7" fill="#FFFFFF"></path>
                        </g>
                    </g>
                </g>
            </g>
        </g>
    </g>
</svg>